<mxfile host="app.diagrams.net" modified="2022-03-31T08:58:26.502Z" agent="5.0 (Windows NT 10.0; Win64; x64) AppleWebKit/537.36 (KHTML, like Gecko) Chrome/100.0.4896.60 Safari/537.36" etag="E1DPfkPuTfjkf-k9qtWF" version="17.2.5" type="github" pages="4">
  <diagram id="dEH-hQJbf2kBLrELikxC" name="Page-1">
    <mxGraphModel dx="782" dy="426" grid="1" gridSize="10" guides="1" tooltips="1" connect="1" arrows="1" fold="1" page="1" pageScale="1" pageWidth="850" pageHeight="1100" math="0" shadow="0">
      <root>
        <mxCell id="0" />
        <mxCell id="1" parent="0" />
        <mxCell id="o41F1_x-FD4fBnq3QoN8-1" value="Package :&amp;nbsp;" style="rounded=1;whiteSpace=wrap;html=1;" parent="1" vertex="1">
          <mxGeometry x="80" y="60" width="360" height="70" as="geometry" />
        </mxCell>
        <mxCell id="o41F1_x-FD4fBnq3QoN8-2" value="Layered Architecture :&amp;nbsp;" style="rounded=1;whiteSpace=wrap;html=1;" parent="1" vertex="1">
          <mxGeometry x="80" y="240" width="360" height="150" as="geometry" />
        </mxCell>
        <mxCell id="o41F1_x-FD4fBnq3QoN8-5" value="" style="edgeStyle=orthogonalEdgeStyle;rounded=0;orthogonalLoop=1;jettySize=auto;html=1;" parent="1" source="o41F1_x-FD4fBnq3QoN8-3" target="o41F1_x-FD4fBnq3QoN8-4" edge="1">
          <mxGeometry relative="1" as="geometry" />
        </mxCell>
        <mxCell id="o41F1_x-FD4fBnq3QoN8-11" value="" style="edgeStyle=orthogonalEdgeStyle;rounded=0;orthogonalLoop=1;jettySize=auto;html=1;" parent="1" source="o41F1_x-FD4fBnq3QoN8-3" target="o41F1_x-FD4fBnq3QoN8-10" edge="1">
          <mxGeometry relative="1" as="geometry" />
        </mxCell>
        <mxCell id="o41F1_x-FD4fBnq3QoN8-3" value="Main" style="rounded=1;whiteSpace=wrap;html=1;" parent="1" vertex="1">
          <mxGeometry x="390" y="460" width="320" height="60" as="geometry" />
        </mxCell>
        <mxCell id="o41F1_x-FD4fBnq3QoN8-7" value="" style="edgeStyle=orthogonalEdgeStyle;rounded=0;orthogonalLoop=1;jettySize=auto;html=1;" parent="1" source="o41F1_x-FD4fBnq3QoN8-4" target="o41F1_x-FD4fBnq3QoN8-6" edge="1">
          <mxGeometry relative="1" as="geometry" />
        </mxCell>
        <mxCell id="o41F1_x-FD4fBnq3QoN8-13" value="" style="edgeStyle=orthogonalEdgeStyle;rounded=0;orthogonalLoop=1;jettySize=auto;html=1;" parent="1" source="o41F1_x-FD4fBnq3QoN8-4" target="o41F1_x-FD4fBnq3QoN8-12" edge="1">
          <mxGeometry relative="1" as="geometry" />
        </mxCell>
        <mxCell id="o41F1_x-FD4fBnq3QoN8-4" value="service" style="whiteSpace=wrap;html=1;rounded=1;" parent="1" vertex="1">
          <mxGeometry x="400" y="600" width="300" height="60" as="geometry" />
        </mxCell>
        <mxCell id="o41F1_x-FD4fBnq3QoN8-9" style="edgeStyle=orthogonalEdgeStyle;rounded=0;orthogonalLoop=1;jettySize=auto;html=1;" parent="1" source="o41F1_x-FD4fBnq3QoN8-6" target="o41F1_x-FD4fBnq3QoN8-8" edge="1">
          <mxGeometry relative="1" as="geometry" />
        </mxCell>
        <mxCell id="o41F1_x-FD4fBnq3QoN8-15" value="" style="edgeStyle=orthogonalEdgeStyle;rounded=0;orthogonalLoop=1;jettySize=auto;html=1;" parent="1" source="o41F1_x-FD4fBnq3QoN8-6" target="o41F1_x-FD4fBnq3QoN8-14" edge="1">
          <mxGeometry relative="1" as="geometry" />
        </mxCell>
        <mxCell id="o41F1_x-FD4fBnq3QoN8-6" value="DAO/Repository" style="whiteSpace=wrap;html=1;rounded=1;" parent="1" vertex="1">
          <mxGeometry x="490" y="740" width="120" height="60" as="geometry" />
        </mxCell>
        <mxCell id="o41F1_x-FD4fBnq3QoN8-8" value="DB" style="shape=cylinder3;whiteSpace=wrap;html=1;boundedLbl=1;backgroundOutline=1;size=15;" parent="1" vertex="1">
          <mxGeometry x="520" y="890" width="60" height="80" as="geometry" />
        </mxCell>
        <mxCell id="o41F1_x-FD4fBnq3QoN8-10" value="to handle / control all activities of ur application" style="whiteSpace=wrap;html=1;rounded=1;" parent="1" vertex="1">
          <mxGeometry x="890" y="460" width="120" height="60" as="geometry" />
        </mxCell>
        <mxCell id="o41F1_x-FD4fBnq3QoN8-12" value="to hold business logic for ur application" style="whiteSpace=wrap;html=1;rounded=1;" parent="1" vertex="1">
          <mxGeometry x="870" y="600" width="120" height="60" as="geometry" />
        </mxCell>
        <mxCell id="o41F1_x-FD4fBnq3QoN8-14" value="will hold all DB related codes" style="whiteSpace=wrap;html=1;rounded=1;" parent="1" vertex="1">
          <mxGeometry x="870" y="740" width="120" height="60" as="geometry" />
        </mxCell>
        <mxCell id="o41F1_x-FD4fBnq3QoN8-16" value="Entire application&amp;nbsp;&lt;br&gt;Can I write it in a single java file Main.java?" style="rounded=1;whiteSpace=wrap;html=1;" parent="1" vertex="1">
          <mxGeometry x="110" y="470" width="200" height="520" as="geometry" />
        </mxCell>
        <mxCell id="o41F1_x-FD4fBnq3QoN8-17" value="com.citi.personcrud : base package&amp;nbsp;&lt;br&gt;com.citi.personcrud.bean/dto(data transport object)&amp;nbsp; : to transport the data from layer to another in terms of object&amp;nbsp;" style="rounded=1;whiteSpace=wrap;html=1;" parent="1" vertex="1">
          <mxGeometry x="150" y="1060" width="560" height="200" as="geometry" />
        </mxCell>
        <mxCell id="o41F1_x-FD4fBnq3QoN8-18" value="7" style="text;html=1;strokeColor=#d6b656;fillColor=#fff2cc;align=center;verticalAlign=middle;whiteSpace=wrap;rounded=0;" parent="1" vertex="1">
          <mxGeometry x="590" y="550" width="60" height="30" as="geometry" />
        </mxCell>
        <mxCell id="o41F1_x-FD4fBnq3QoN8-19" value="7" style="text;html=1;strokeColor=#d6b656;fillColor=#fff2cc;align=center;verticalAlign=middle;whiteSpace=wrap;rounded=0;" parent="1" vertex="1">
          <mxGeometry x="570" y="700" width="60" height="30" as="geometry" />
        </mxCell>
        <mxCell id="o41F1_x-FD4fBnq3QoN8-20" value="Object" style="text;html=1;strokeColor=#6c8ebf;fillColor=#dae8fc;align=center;verticalAlign=middle;whiteSpace=wrap;rounded=0;" parent="1" vertex="1">
          <mxGeometry x="410" y="560" width="60" height="30" as="geometry" />
        </mxCell>
        <mxCell id="o41F1_x-FD4fBnq3QoN8-21" value="Object" style="text;html=1;strokeColor=#6c8ebf;fillColor=#dae8fc;align=center;verticalAlign=middle;whiteSpace=wrap;rounded=0;" parent="1" vertex="1">
          <mxGeometry x="410" y="700" width="60" height="30" as="geometry" />
        </mxCell>
        <mxCell id="o41F1_x-FD4fBnq3QoN8-22" value="If we will not declare any constructor then by default it will introduce the constructor ===&amp;gt; DC ==&amp;gt; by Java/JVM ===&amp;gt; implicit DC&lt;br&gt;&lt;b&gt;*** if we will introduce the any type of constructor then java/jvm will not introduce the implicit DC .&lt;/b&gt;&lt;br&gt;&lt;br&gt;Explicit DC : DC will be introduced by Developer to initialize the fields&amp;nbsp;&lt;br&gt;&lt;br&gt;PC :&amp;nbsp;" style="rounded=1;whiteSpace=wrap;html=1;" parent="1" vertex="1">
          <mxGeometry x="140" y="1410" width="330" height="160" as="geometry" />
        </mxCell>
        <mxCell id="qg5GrFxpXrcBTXjDAJmJ-1" value="DB2" style="shape=cylinder3;whiteSpace=wrap;html=1;boundedLbl=1;backgroundOutline=1;size=15;" parent="1" vertex="1">
          <mxGeometry x="395" y="890" width="60" height="80" as="geometry" />
        </mxCell>
        <mxCell id="qg5GrFxpXrcBTXjDAJmJ-2" value="DB3" style="shape=cylinder3;whiteSpace=wrap;html=1;boundedLbl=1;backgroundOutline=1;size=15;" parent="1" vertex="1">
          <mxGeometry x="660" y="890" width="60" height="80" as="geometry" />
        </mxCell>
        <mxCell id="qg5GrFxpXrcBTXjDAJmJ-11" style="edgeStyle=orthogonalEdgeStyle;rounded=0;orthogonalLoop=1;jettySize=auto;html=1;entryX=0.5;entryY=0;entryDx=0;entryDy=0;" parent="1" source="qg5GrFxpXrcBTXjDAJmJ-3" target="qg5GrFxpXrcBTXjDAJmJ-7" edge="1">
          <mxGeometry relative="1" as="geometry" />
        </mxCell>
        <mxCell id="qg5GrFxpXrcBTXjDAJmJ-3" value="Oracle" style="rounded=1;whiteSpace=wrap;html=1;" parent="1" vertex="1">
          <mxGeometry x="560" y="1680" width="120" height="60" as="geometry" />
        </mxCell>
        <mxCell id="qg5GrFxpXrcBTXjDAJmJ-10" style="edgeStyle=orthogonalEdgeStyle;rounded=0;orthogonalLoop=1;jettySize=auto;html=1;" parent="1" source="qg5GrFxpXrcBTXjDAJmJ-4" target="qg5GrFxpXrcBTXjDAJmJ-7" edge="1">
          <mxGeometry relative="1" as="geometry" />
        </mxCell>
        <mxCell id="qg5GrFxpXrcBTXjDAJmJ-4" value="DB2" style="rounded=1;whiteSpace=wrap;html=1;" parent="1" vertex="1">
          <mxGeometry x="560" y="1830" width="120" height="60" as="geometry" />
        </mxCell>
        <mxCell id="qg5GrFxpXrcBTXjDAJmJ-9" style="edgeStyle=orthogonalEdgeStyle;rounded=0;orthogonalLoop=1;jettySize=auto;html=1;entryX=0.75;entryY=1;entryDx=0;entryDy=0;" parent="1" source="qg5GrFxpXrcBTXjDAJmJ-5" target="qg5GrFxpXrcBTXjDAJmJ-7" edge="1">
          <mxGeometry relative="1" as="geometry" />
        </mxCell>
        <mxCell id="qg5GrFxpXrcBTXjDAJmJ-5" value="Postgre&lt;span style=&quot;color: rgba(0 , 0 , 0 , 0) ; font-family: monospace ; font-size: 0px&quot;&gt;%3CmxGraphModel%3E%3Croot%3E%3CmxCell%20id%3D%220%22%2F%3E%3CmxCell%20id%3D%221%22%20parent%3D%220%22%2F%3E%3CmxCell%20id%3D%222%22%20value%3D%22Oracle%22%20style%3D%22rounded%3D1%3BwhiteSpace%3Dwrap%3Bhtml%3D1%3B%22%20vertex%3D%221%22%20parent%3D%221%22%3E%3CmxGeometry%20x%3D%22560%22%20y%3D%221680%22%20width%3D%22120%22%20height%3D%2260%22%20as%3D%22geometry%22%2F%3E%3C%2FmxCell%3E%3C%2Froot%3E%3C%2FmxGraphModel%3E&lt;/span&gt;" style="rounded=1;whiteSpace=wrap;html=1;" parent="1" vertex="1">
          <mxGeometry x="560" y="1980" width="120" height="60" as="geometry" />
        </mxCell>
        <mxCell id="qg5GrFxpXrcBTXjDAJmJ-8" style="edgeStyle=orthogonalEdgeStyle;rounded=0;orthogonalLoop=1;jettySize=auto;html=1;" parent="1" source="qg5GrFxpXrcBTXjDAJmJ-6" target="qg5GrFxpXrcBTXjDAJmJ-7" edge="1">
          <mxGeometry relative="1" as="geometry" />
        </mxCell>
        <mxCell id="qg5GrFxpXrcBTXjDAJmJ-6" value="mysql" style="rounded=1;whiteSpace=wrap;html=1;" parent="1" vertex="1">
          <mxGeometry x="560" y="2100" width="120" height="60" as="geometry" />
        </mxCell>
        <mxCell id="qg5GrFxpXrcBTXjDAJmJ-7" value="Operations will be same" style="rounded=1;whiteSpace=wrap;html=1;" parent="1" vertex="1">
          <mxGeometry x="160" y="1880" width="120" height="60" as="geometry" />
        </mxCell>
      </root>
    </mxGraphModel>
  </diagram>
  <diagram id="MQb4WIRJPzxUWtvrJmx5" name="interface">
    <mxGraphModel dx="1632" dy="460" grid="1" gridSize="10" guides="1" tooltips="1" connect="1" arrows="1" fold="1" page="1" pageScale="1" pageWidth="850" pageHeight="1100" math="0" shadow="0">
      <root>
        <mxCell id="rK0kOLzEXzJM5Fy0s4nD-0" />
        <mxCell id="rK0kOLzEXzJM5Fy0s4nD-1" parent="rK0kOLzEXzJM5Fy0s4nD-0" />
        <mxCell id="rK0kOLzEXzJM5Fy0s4nD-4" value="" style="edgeStyle=orthogonalEdgeStyle;rounded=0;orthogonalLoop=1;jettySize=auto;html=1;" edge="1" parent="rK0kOLzEXzJM5Fy0s4nD-1" source="rK0kOLzEXzJM5Fy0s4nD-2" target="rK0kOLzEXzJM5Fy0s4nD-3">
          <mxGeometry relative="1" as="geometry" />
        </mxCell>
        <mxCell id="rK0kOLzEXzJM5Fy0s4nD-6" value="" style="edgeStyle=orthogonalEdgeStyle;rounded=0;orthogonalLoop=1;jettySize=auto;html=1;" edge="1" parent="rK0kOLzEXzJM5Fy0s4nD-1" source="rK0kOLzEXzJM5Fy0s4nD-2" target="rK0kOLzEXzJM5Fy0s4nD-5">
          <mxGeometry relative="1" as="geometry" />
        </mxCell>
        <mxCell id="rK0kOLzEXzJM5Fy0s4nD-8" value="" style="edgeStyle=orthogonalEdgeStyle;rounded=0;orthogonalLoop=1;jettySize=auto;html=1;" edge="1" parent="rK0kOLzEXzJM5Fy0s4nD-1" source="rK0kOLzEXzJM5Fy0s4nD-2" target="rK0kOLzEXzJM5Fy0s4nD-7">
          <mxGeometry relative="1" as="geometry" />
        </mxCell>
        <mxCell id="rK0kOLzEXzJM5Fy0s4nD-10" value="" style="edgeStyle=orthogonalEdgeStyle;rounded=0;orthogonalLoop=1;jettySize=auto;html=1;" edge="1" parent="rK0kOLzEXzJM5Fy0s4nD-1" source="rK0kOLzEXzJM5Fy0s4nD-2" target="rK0kOLzEXzJM5Fy0s4nD-9">
          <mxGeometry relative="1" as="geometry" />
        </mxCell>
        <mxCell id="rK0kOLzEXzJM5Fy0s4nD-12" value="" style="edgeStyle=orthogonalEdgeStyle;rounded=0;orthogonalLoop=1;jettySize=auto;html=1;" edge="1" parent="rK0kOLzEXzJM5Fy0s4nD-1" source="rK0kOLzEXzJM5Fy0s4nD-2" target="rK0kOLzEXzJM5Fy0s4nD-11">
          <mxGeometry relative="1" as="geometry" />
        </mxCell>
        <mxCell id="rK0kOLzEXzJM5Fy0s4nD-14" value="" style="edgeStyle=orthogonalEdgeStyle;rounded=0;orthogonalLoop=1;jettySize=auto;html=1;" edge="1" parent="rK0kOLzEXzJM5Fy0s4nD-1" source="rK0kOLzEXzJM5Fy0s4nD-2" target="rK0kOLzEXzJM5Fy0s4nD-13">
          <mxGeometry relative="1" as="geometry" />
        </mxCell>
        <mxCell id="rK0kOLzEXzJM5Fy0s4nD-2" value="SuperHero" style="rounded=1;whiteSpace=wrap;html=1;" vertex="1" parent="rK0kOLzEXzJM5Fy0s4nD-1">
          <mxGeometry x="330" y="80" width="120" height="60" as="geometry" />
        </mxCell>
        <mxCell id="rK0kOLzEXzJM5Fy0s4nD-3" value="Ironman" style="whiteSpace=wrap;html=1;rounded=1;fillColor=#f8cecc;strokeColor=#b85450;" vertex="1" parent="rK0kOLzEXzJM5Fy0s4nD-1">
          <mxGeometry x="80" y="200" width="120" height="60" as="geometry" />
        </mxCell>
        <mxCell id="rK0kOLzEXzJM5Fy0s4nD-5" value="Thor" style="whiteSpace=wrap;html=1;rounded=1;" vertex="1" parent="rK0kOLzEXzJM5Fy0s4nD-1">
          <mxGeometry x="330" y="220" width="120" height="60" as="geometry" />
        </mxCell>
        <mxCell id="rK0kOLzEXzJM5Fy0s4nD-7" value="Superman" style="whiteSpace=wrap;html=1;rounded=1;fillColor=#f8cecc;strokeColor=#b85450;" vertex="1" parent="rK0kOLzEXzJM5Fy0s4nD-1">
          <mxGeometry x="580" y="220" width="120" height="60" as="geometry" />
        </mxCell>
        <mxCell id="rK0kOLzEXzJM5Fy0s4nD-9" value="Shaktiman" style="whiteSpace=wrap;html=1;rounded=1;fillColor=#f8cecc;strokeColor=#b85450;" vertex="1" parent="rK0kOLzEXzJM5Fy0s4nD-1">
          <mxGeometry x="470" y="340" width="120" height="60" as="geometry" />
        </mxCell>
        <mxCell id="rK0kOLzEXzJM5Fy0s4nD-11" value="Hulk" style="whiteSpace=wrap;html=1;rounded=1;" vertex="1" parent="rK0kOLzEXzJM5Fy0s4nD-1">
          <mxGeometry x="190" y="350" width="120" height="60" as="geometry" />
        </mxCell>
        <mxCell id="rK0kOLzEXzJM5Fy0s4nD-13" value="batman" style="whiteSpace=wrap;html=1;rounded=1;" vertex="1" parent="rK0kOLzEXzJM5Fy0s4nD-1">
          <mxGeometry x="-20" y="460" width="120" height="60" as="geometry" />
        </mxCell>
        <mxCell id="rK0kOLzEXzJM5Fy0s4nD-18" style="edgeStyle=orthogonalEdgeStyle;rounded=0;orthogonalLoop=1;jettySize=auto;html=1;entryX=0.567;entryY=1.044;entryDx=0;entryDy=0;entryPerimeter=0;" edge="1" parent="rK0kOLzEXzJM5Fy0s4nD-1" source="rK0kOLzEXzJM5Fy0s4nD-17" target="rK0kOLzEXzJM5Fy0s4nD-3">
          <mxGeometry relative="1" as="geometry" />
        </mxCell>
        <mxCell id="rK0kOLzEXzJM5Fy0s4nD-19" style="edgeStyle=orthogonalEdgeStyle;rounded=0;orthogonalLoop=1;jettySize=auto;html=1;" edge="1" parent="rK0kOLzEXzJM5Fy0s4nD-1" source="rK0kOLzEXzJM5Fy0s4nD-17" target="rK0kOLzEXzJM5Fy0s4nD-9">
          <mxGeometry relative="1" as="geometry" />
        </mxCell>
        <mxCell id="rK0kOLzEXzJM5Fy0s4nD-20" style="edgeStyle=orthogonalEdgeStyle;rounded=0;orthogonalLoop=1;jettySize=auto;html=1;entryX=0.5;entryY=1;entryDx=0;entryDy=0;" edge="1" parent="rK0kOLzEXzJM5Fy0s4nD-1" source="rK0kOLzEXzJM5Fy0s4nD-17" target="rK0kOLzEXzJM5Fy0s4nD-7">
          <mxGeometry relative="1" as="geometry" />
        </mxCell>
        <mxCell id="rK0kOLzEXzJM5Fy0s4nD-17" value="Interface&lt;br&gt;Flyable&lt;br&gt;fly method" style="ellipse;shape=cloud;whiteSpace=wrap;html=1;fillColor=#dae8fc;strokeColor=#6c8ebf;" vertex="1" parent="rK0kOLzEXzJM5Fy0s4nD-1">
          <mxGeometry x="320" y="510" width="120" height="80" as="geometry" />
        </mxCell>
        <mxCell id="rK0kOLzEXzJM5Fy0s4nD-21" value="1. Account :&amp;nbsp;&lt;br&gt;accountNo&lt;br&gt;person&amp;nbsp; &amp;nbsp;&lt;br&gt;accountType&lt;br&gt;balance&lt;br&gt;openingDate&amp;nbsp; &amp;nbsp;LocalDate(java8)&lt;br&gt;activeStatus boolean" style="rounded=1;whiteSpace=wrap;html=1;" vertex="1" parent="rK0kOLzEXzJM5Fy0s4nD-1">
          <mxGeometry x="-60" y="690" width="260" height="250" as="geometry" />
        </mxCell>
      </root>
    </mxGraphModel>
  </diagram>
  <diagram id="ivjS-mDJTHe7fm4Ek6cG" name="JDBC">
    <mxGraphModel dx="1888" dy="605" grid="1" gridSize="10" guides="1" tooltips="1" connect="1" arrows="1" fold="1" page="1" pageScale="1" pageWidth="850" pageHeight="1100" math="0" shadow="0">
      <root>
        <mxCell id="-2ELsdU1Q9edbkPid1lJ-0" />
        <mxCell id="-2ELsdU1Q9edbkPid1lJ-1" parent="-2ELsdU1Q9edbkPid1lJ-0" />
        <mxCell id="-2ELsdU1Q9edbkPid1lJ-2" value="Type 1 Driver&lt;br&gt;(JDBC ODBC Bridge)" style="rounded=1;whiteSpace=wrap;html=1;" vertex="1" parent="-2ELsdU1Q9edbkPid1lJ-1">
          <mxGeometry x="310" y="60" width="120" height="60" as="geometry" />
        </mxCell>
        <mxCell id="-2ELsdU1Q9edbkPid1lJ-3" value="Type 3 Driver&lt;br&gt;(network protocol)&lt;br&gt;(java based driver)" style="rounded=1;whiteSpace=wrap;html=1;" vertex="1" parent="-2ELsdU1Q9edbkPid1lJ-1">
          <mxGeometry x="520" y="170" width="120" height="60" as="geometry" />
        </mxCell>
        <mxCell id="-2ELsdU1Q9edbkPid1lJ-4" value="Type 2 Driver&lt;br&gt;(native api )" style="rounded=1;whiteSpace=wrap;html=1;" vertex="1" parent="-2ELsdU1Q9edbkPid1lJ-1">
          <mxGeometry x="110" y="170" width="120" height="60" as="geometry" />
        </mxCell>
        <mxCell id="-2ELsdU1Q9edbkPid1lJ-5" value="Type 4 Driver&lt;br&gt;(Thin Driver)" style="rounded=1;whiteSpace=wrap;html=1;fillColor=#dae8fc;strokeColor=#6c8ebf;" vertex="1" parent="-2ELsdU1Q9edbkPid1lJ-1">
          <mxGeometry x="510" y="270" width="120" height="60" as="geometry" />
        </mxCell>
        <mxCell id="-2ELsdU1Q9edbkPid1lJ-8" value="" style="edgeStyle=orthogonalEdgeStyle;rounded=0;orthogonalLoop=1;jettySize=auto;html=1;" edge="1" parent="-2ELsdU1Q9edbkPid1lJ-1" source="-2ELsdU1Q9edbkPid1lJ-6" target="-2ELsdU1Q9edbkPid1lJ-7">
          <mxGeometry relative="1" as="geometry" />
        </mxCell>
        <mxCell id="-2ELsdU1Q9edbkPid1lJ-14" value="" style="edgeStyle=orthogonalEdgeStyle;rounded=0;orthogonalLoop=1;jettySize=auto;html=1;" edge="1" parent="-2ELsdU1Q9edbkPid1lJ-1" source="-2ELsdU1Q9edbkPid1lJ-6" target="-2ELsdU1Q9edbkPid1lJ-13">
          <mxGeometry relative="1" as="geometry" />
        </mxCell>
        <mxCell id="-2ELsdU1Q9edbkPid1lJ-6" value="Connection Object" style="rounded=1;whiteSpace=wrap;html=1;" vertex="1" parent="-2ELsdU1Q9edbkPid1lJ-1">
          <mxGeometry x="220" y="410" width="280" height="40" as="geometry" />
        </mxCell>
        <mxCell id="-2ELsdU1Q9edbkPid1lJ-10" value="" style="edgeStyle=orthogonalEdgeStyle;rounded=0;orthogonalLoop=1;jettySize=auto;html=1;" edge="1" parent="-2ELsdU1Q9edbkPid1lJ-1" source="-2ELsdU1Q9edbkPid1lJ-7" target="-2ELsdU1Q9edbkPid1lJ-9">
          <mxGeometry relative="1" as="geometry" />
        </mxCell>
        <mxCell id="-2ELsdU1Q9edbkPid1lJ-12" value="" style="edgeStyle=orthogonalEdgeStyle;rounded=0;orthogonalLoop=1;jettySize=auto;html=1;" edge="1" parent="-2ELsdU1Q9edbkPid1lJ-1" source="-2ELsdU1Q9edbkPid1lJ-7" target="-2ELsdU1Q9edbkPid1lJ-11">
          <mxGeometry relative="1" as="geometry" />
        </mxCell>
        <mxCell id="-2ELsdU1Q9edbkPid1lJ-7" value="Create the statement Object" style="rounded=1;whiteSpace=wrap;html=1;" vertex="1" parent="-2ELsdU1Q9edbkPid1lJ-1">
          <mxGeometry x="220" y="530" width="280" height="40" as="geometry" />
        </mxCell>
        <mxCell id="-2ELsdU1Q9edbkPid1lJ-19" value="" style="edgeStyle=orthogonalEdgeStyle;rounded=0;orthogonalLoop=1;jettySize=auto;html=1;" edge="1" parent="-2ELsdU1Q9edbkPid1lJ-1" source="-2ELsdU1Q9edbkPid1lJ-9" target="-2ELsdU1Q9edbkPid1lJ-18">
          <mxGeometry relative="1" as="geometry" />
        </mxCell>
        <mxCell id="-2ELsdU1Q9edbkPid1lJ-9" value="ResultSet(in case of DQL)select statement" style="rounded=1;whiteSpace=wrap;html=1;" vertex="1" parent="-2ELsdU1Q9edbkPid1lJ-1">
          <mxGeometry x="570" y="650" width="280" height="40" as="geometry" />
        </mxCell>
        <mxCell id="-2ELsdU1Q9edbkPid1lJ-17" style="edgeStyle=orthogonalEdgeStyle;rounded=0;orthogonalLoop=1;jettySize=auto;html=1;" edge="1" parent="-2ELsdU1Q9edbkPid1lJ-1" source="-2ELsdU1Q9edbkPid1lJ-11">
          <mxGeometry relative="1" as="geometry">
            <mxPoint x="390" y="770" as="targetPoint" />
          </mxGeometry>
        </mxCell>
        <mxCell id="-2ELsdU1Q9edbkPid1lJ-11" value="result status(in case of DML)" style="rounded=1;whiteSpace=wrap;html=1;" vertex="1" parent="-2ELsdU1Q9edbkPid1lJ-1">
          <mxGeometry x="-130" y="650" width="280" height="40" as="geometry" />
        </mxCell>
        <mxCell id="-2ELsdU1Q9edbkPid1lJ-16" value="" style="edgeStyle=orthogonalEdgeStyle;rounded=0;orthogonalLoop=1;jettySize=auto;html=1;" edge="1" parent="-2ELsdU1Q9edbkPid1lJ-1" source="-2ELsdU1Q9edbkPid1lJ-13" target="-2ELsdU1Q9edbkPid1lJ-15">
          <mxGeometry relative="1" as="geometry" />
        </mxCell>
        <mxCell id="-2ELsdU1Q9edbkPid1lJ-13" value="DriverManager class" style="rounded=1;whiteSpace=wrap;html=1;" vertex="1" parent="-2ELsdU1Q9edbkPid1lJ-1">
          <mxGeometry x="220" y="340" width="280" height="40" as="geometry" />
        </mxCell>
        <mxCell id="-2ELsdU1Q9edbkPid1lJ-15" value="Load the Driver but now a days from java8 onwards loading driver is optional thing since it is handled by JVM internally)" style="rounded=1;whiteSpace=wrap;html=1;fillColor=#0050ef;fontColor=#ffffff;strokeColor=#001DBC;" vertex="1" parent="-2ELsdU1Q9edbkPid1lJ-1">
          <mxGeometry x="220" y="220" width="280" height="40" as="geometry" />
        </mxCell>
        <mxCell id="-2ELsdU1Q9edbkPid1lJ-18" value="close the connection" style="rounded=1;whiteSpace=wrap;html=1;" vertex="1" parent="-2ELsdU1Q9edbkPid1lJ-1">
          <mxGeometry x="250" y="770" width="280" height="40" as="geometry" />
        </mxCell>
        <mxCell id="-2ELsdU1Q9edbkPid1lJ-20" value="1. Statement :&amp;nbsp;&lt;br&gt;&lt;b&gt;2. PreparedStatement :&lt;br&gt;3. Procedures ===&amp;gt; CallableStatement&amp;nbsp;&lt;/b&gt;" style="rounded=1;whiteSpace=wrap;html=1;" vertex="1" parent="-2ELsdU1Q9edbkPid1lJ-1">
          <mxGeometry x="-80" y="750" width="250" height="200" as="geometry" />
        </mxCell>
        <mxCell id="-2ELsdU1Q9edbkPid1lJ-21" value="" style="rounded=1;whiteSpace=wrap;html=1;" vertex="1" parent="-2ELsdU1Q9edbkPid1lJ-1">
          <mxGeometry x="460" y="950" width="220" height="140" as="geometry" />
        </mxCell>
        <mxCell id="-2ELsdU1Q9edbkPid1lJ-22" value="" style="rounded=1;whiteSpace=wrap;html=1;" vertex="1" parent="-2ELsdU1Q9edbkPid1lJ-1">
          <mxGeometry x="480" y="960" width="180" height="40" as="geometry" />
        </mxCell>
        <mxCell id="-2ELsdU1Q9edbkPid1lJ-23" value="" style="rounded=1;whiteSpace=wrap;html=1;" vertex="1" parent="-2ELsdU1Q9edbkPid1lJ-1">
          <mxGeometry x="480" y="1000" width="180" height="40" as="geometry" />
        </mxCell>
        <mxCell id="-2ELsdU1Q9edbkPid1lJ-24" value="" style="rounded=1;whiteSpace=wrap;html=1;" vertex="1" parent="-2ELsdU1Q9edbkPid1lJ-1">
          <mxGeometry x="480" y="1040" width="180" height="40" as="geometry" />
        </mxCell>
        <mxCell id="-2ELsdU1Q9edbkPid1lJ-26" value="" style="shape=flexArrow;endArrow=classic;html=1;rounded=0;" edge="1" parent="-2ELsdU1Q9edbkPid1lJ-1">
          <mxGeometry width="50" height="50" relative="1" as="geometry">
            <mxPoint x="393" y="930" as="sourcePoint" />
            <mxPoint x="458" y="930" as="targetPoint" />
          </mxGeometry>
        </mxCell>
        <mxCell id="-2ELsdU1Q9edbkPid1lJ-29" value="" style="edgeStyle=orthogonalEdgeStyle;rounded=0;orthogonalLoop=1;jettySize=auto;html=1;" edge="1" parent="-2ELsdU1Q9edbkPid1lJ-1" source="-2ELsdU1Q9edbkPid1lJ-27" target="-2ELsdU1Q9edbkPid1lJ-28">
          <mxGeometry relative="1" as="geometry" />
        </mxCell>
        <mxCell id="-2ELsdU1Q9edbkPid1lJ-27" value="one one records after every traersal" style="shape=tape;whiteSpace=wrap;html=1;fillColor=#0050ef;fontColor=#ffffff;strokeColor=#001DBC;" vertex="1" parent="-2ELsdU1Q9edbkPid1lJ-1">
          <mxGeometry x="260" y="940" width="190" height="130" as="geometry" />
        </mxCell>
        <mxCell id="-2ELsdU1Q9edbkPid1lJ-28" value="hold it in list" style="whiteSpace=wrap;html=1;fillColor=#0050ef;strokeColor=#001DBC;fontColor=#ffffff;" vertex="1" parent="-2ELsdU1Q9edbkPid1lJ-1">
          <mxGeometry x="295" y="1185" width="120" height="60" as="geometry" />
        </mxCell>
      </root>
    </mxGraphModel>
  </diagram>
  <diagram id="qQPBGTUoFmJyMq_JTOUS" name="maven">
    <mxGraphModel dx="1038" dy="571" grid="1" gridSize="10" guides="1" tooltips="1" connect="1" arrows="1" fold="1" page="1" pageScale="1" pageWidth="850" pageHeight="1100" math="0" shadow="0">
      <root>
        <mxCell id="0" />
        <mxCell id="1" parent="0" />
        <mxCell id="E6WqK7T27xIFB8Qk0rmb-16" value="" style="rounded=1;whiteSpace=wrap;html=1;" parent="1" vertex="1">
          <mxGeometry x="30" y="800" width="640" height="310" as="geometry" />
        </mxCell>
        <mxCell id="E6WqK7T27xIFB8Qk0rmb-1" value="Maven : managing your project lib(dependencies)&lt;br&gt;&lt;br&gt;POM.xml : project object modeling --&amp;gt; all req lib for ur project/application" style="ellipse;shape=cloud;whiteSpace=wrap;html=1;" parent="1" vertex="1">
          <mxGeometry x="30" y="70" width="530" height="150" as="geometry" />
        </mxCell>
        <mxCell id="E6WqK7T27xIFB8Qk0rmb-2" value="Framework : its a collection of pre defined functionalities in a well organized way to achieve common task.&amp;nbsp;&lt;br&gt;library :&amp;nbsp; it contains only functionalities.&lt;br&gt;&lt;br&gt;Spring :&amp;nbsp;&lt;br&gt;&lt;br&gt;types of containers : 1. bean factory : (lazy loading) ---&amp;gt; on demand&lt;br&gt;2. applicationcontext (early loading)---&amp;gt;&amp;nbsp;&lt;br&gt;&lt;b&gt;commonly reqd object ---&amp;gt; early loaded&lt;br&gt;not frequently reqd object---&amp;gt; lazily loaded&lt;/b&gt;" style="rounded=1;whiteSpace=wrap;html=1;" parent="1" vertex="1">
          <mxGeometry x="130" y="390" width="380" height="170" as="geometry" />
        </mxCell>
        <mxCell id="E6WqK7T27xIFB8Qk0rmb-3" value="MVC ===&amp;gt;&amp;nbsp;&lt;br&gt;Spring MVC" style="ellipse;shape=cloud;whiteSpace=wrap;html=1;" parent="1" vertex="1">
          <mxGeometry x="90" y="660" width="150" height="70" as="geometry" />
        </mxCell>
        <mxCell id="E6WqK7T27xIFB8Qk0rmb-5" value="Food Preparation" style="whiteSpace=wrap;html=1;aspect=fixed;" parent="1" vertex="1">
          <mxGeometry x="200" y="860" width="80" height="80" as="geometry" />
        </mxCell>
        <mxCell id="E6WqK7T27xIFB8Qk0rmb-6" value="Serving the food to customers" style="whiteSpace=wrap;html=1;aspect=fixed;" parent="1" vertex="1">
          <mxGeometry x="400" y="860" width="80" height="80" as="geometry" />
        </mxCell>
        <mxCell id="E6WqK7T27xIFB8Qk0rmb-7" value="managing counter" style="whiteSpace=wrap;html=1;aspect=fixed;" parent="1" vertex="1">
          <mxGeometry x="300" y="990" width="80" height="80" as="geometry" />
        </mxCell>
        <mxCell id="E6WqK7T27xIFB8Qk0rmb-10" style="edgeStyle=orthogonalEdgeStyle;rounded=0;orthogonalLoop=1;jettySize=auto;html=1;entryX=0.5;entryY=0;entryDx=0;entryDy=0;" parent="1" source="E6WqK7T27xIFB8Qk0rmb-8" target="E6WqK7T27xIFB8Qk0rmb-7" edge="1">
          <mxGeometry relative="1" as="geometry" />
        </mxCell>
        <mxCell id="E6WqK7T27xIFB8Qk0rmb-8" value="Actor" style="shape=umlActor;verticalLabelPosition=bottom;verticalAlign=top;html=1;outlineConnect=0;" parent="1" vertex="1">
          <mxGeometry x="325" y="890" width="30" height="60" as="geometry" />
        </mxCell>
        <mxCell id="E6WqK7T27xIFB8Qk0rmb-13" style="edgeStyle=orthogonalEdgeStyle;rounded=0;orthogonalLoop=1;jettySize=auto;html=1;entryX=0;entryY=0.5;entryDx=0;entryDy=0;" parent="1" source="E6WqK7T27xIFB8Qk0rmb-12" target="E6WqK7T27xIFB8Qk0rmb-5" edge="1">
          <mxGeometry relative="1" as="geometry" />
        </mxCell>
        <mxCell id="E6WqK7T27xIFB8Qk0rmb-12" value="Cook" style="shape=umlActor;verticalLabelPosition=bottom;verticalAlign=top;html=1;outlineConnect=0;" parent="1" vertex="1">
          <mxGeometry x="90" y="850" width="30" height="60" as="geometry" />
        </mxCell>
        <mxCell id="E6WqK7T27xIFB8Qk0rmb-15" style="edgeStyle=orthogonalEdgeStyle;rounded=0;orthogonalLoop=1;jettySize=auto;html=1;entryX=1;entryY=0.5;entryDx=0;entryDy=0;" parent="1" source="E6WqK7T27xIFB8Qk0rmb-14" target="E6WqK7T27xIFB8Qk0rmb-6" edge="1">
          <mxGeometry relative="1" as="geometry" />
        </mxCell>
        <mxCell id="E6WqK7T27xIFB8Qk0rmb-14" value="waiter" style="shape=umlActor;verticalLabelPosition=bottom;verticalAlign=top;html=1;outlineConnect=0;" parent="1" vertex="1">
          <mxGeometry x="560" y="870" width="30" height="60" as="geometry" />
        </mxCell>
        <mxCell id="E6WqK7T27xIFB8Qk0rmb-17" value="Model" style="text;html=1;strokeColor=#6c8ebf;fillColor=#dae8fc;align=center;verticalAlign=middle;whiteSpace=wrap;rounded=0;" parent="1" vertex="1">
          <mxGeometry x="130" y="950" width="60" height="30" as="geometry" />
        </mxCell>
        <mxCell id="E6WqK7T27xIFB8Qk0rmb-19" value="view" style="text;html=1;strokeColor=#6c8ebf;fillColor=#dae8fc;align=center;verticalAlign=middle;whiteSpace=wrap;rounded=0;" parent="1" vertex="1">
          <mxGeometry x="490" y="950" width="60" height="30" as="geometry" />
        </mxCell>
        <mxCell id="E6WqK7T27xIFB8Qk0rmb-20" value="Controll" style="text;html=1;strokeColor=#6c8ebf;fillColor=#dae8fc;align=center;verticalAlign=middle;whiteSpace=wrap;rounded=0;" parent="1" vertex="1">
          <mxGeometry x="395" y="1050" width="60" height="30" as="geometry" />
        </mxCell>
        <mxCell id="E6WqK7T27xIFB8Qk0rmb-21" value="" style="rounded=1;whiteSpace=wrap;html=1;" parent="1" vertex="1">
          <mxGeometry x="45" y="1200" width="120" height="310" as="geometry" />
        </mxCell>
        <mxCell id="E6WqK7T27xIFB8Qk0rmb-22" value="" style="rounded=1;whiteSpace=wrap;html=1;" parent="1" vertex="1">
          <mxGeometry x="280" y="1200" width="590" height="310" as="geometry" />
        </mxCell>
        <mxCell id="E6WqK7T27xIFB8Qk0rmb-25" value="" style="edgeStyle=orthogonalEdgeStyle;rounded=0;orthogonalLoop=1;jettySize=auto;html=1;" parent="1" source="E6WqK7T27xIFB8Qk0rmb-23" target="E6WqK7T27xIFB8Qk0rmb-24" edge="1">
          <mxGeometry relative="1" as="geometry" />
        </mxCell>
        <mxCell id="E6WqK7T27xIFB8Qk0rmb-28" value="" style="edgeStyle=orthogonalEdgeStyle;rounded=0;orthogonalLoop=1;jettySize=auto;html=1;" parent="1" source="E6WqK7T27xIFB8Qk0rmb-23" target="E6WqK7T27xIFB8Qk0rmb-27" edge="1">
          <mxGeometry relative="1" as="geometry" />
        </mxCell>
        <mxCell id="E6WqK7T27xIFB8Qk0rmb-40" style="edgeStyle=orthogonalEdgeStyle;rounded=0;orthogonalLoop=1;jettySize=auto;html=1;" parent="1" source="E6WqK7T27xIFB8Qk0rmb-23" target="E6WqK7T27xIFB8Qk0rmb-21" edge="1">
          <mxGeometry relative="1" as="geometry" />
        </mxCell>
        <mxCell id="E6WqK7T27xIFB8Qk0rmb-23" value="Dispatcher Servlet&lt;br&gt;(Front Controller)" style="rounded=1;whiteSpace=wrap;html=1;" parent="1" vertex="1">
          <mxGeometry x="305" y="1240" width="70" height="240" as="geometry" />
        </mxCell>
        <mxCell id="E6WqK7T27xIFB8Qk0rmb-26" style="edgeStyle=orthogonalEdgeStyle;rounded=0;orthogonalLoop=1;jettySize=auto;html=1;entryX=1.02;entryY=0.843;entryDx=0;entryDy=0;entryPerimeter=0;" parent="1" source="E6WqK7T27xIFB8Qk0rmb-24" target="E6WqK7T27xIFB8Qk0rmb-23" edge="1">
          <mxGeometry relative="1" as="geometry" />
        </mxCell>
        <mxCell id="E6WqK7T27xIFB8Qk0rmb-24" value="Handler Mapper&lt;br&gt;(controller and its specific method which is responsible for handling that req based on end point" style="whiteSpace=wrap;html=1;rounded=1;" parent="1" vertex="1">
          <mxGeometry x="435" y="1210" width="125" height="90" as="geometry" />
        </mxCell>
        <mxCell id="E6WqK7T27xIFB8Qk0rmb-29" style="edgeStyle=orthogonalEdgeStyle;rounded=0;orthogonalLoop=1;jettySize=auto;html=1;entryX=1;entryY=0.75;entryDx=0;entryDy=0;" parent="1" source="E6WqK7T27xIFB8Qk0rmb-27" target="E6WqK7T27xIFB8Qk0rmb-23" edge="1">
          <mxGeometry relative="1" as="geometry" />
        </mxCell>
        <mxCell id="E6WqK7T27xIFB8Qk0rmb-32" value="" style="edgeStyle=orthogonalEdgeStyle;rounded=0;orthogonalLoop=1;jettySize=auto;html=1;" parent="1" source="E6WqK7T27xIFB8Qk0rmb-27" target="E6WqK7T27xIFB8Qk0rmb-31" edge="1">
          <mxGeometry relative="1" as="geometry" />
        </mxCell>
        <mxCell id="tYKn_np6TWMupXn4WACu-5" style="edgeStyle=orthogonalEdgeStyle;rounded=0;orthogonalLoop=1;jettySize=auto;html=1;" edge="1" parent="1" source="E6WqK7T27xIFB8Qk0rmb-27" target="E6WqK7T27xIFB8Qk0rmb-23">
          <mxGeometry relative="1" as="geometry" />
        </mxCell>
        <mxCell id="E6WqK7T27xIFB8Qk0rmb-27" value="RestController" style="whiteSpace=wrap;html=1;rounded=1;" parent="1" vertex="1">
          <mxGeometry x="457.5" y="1335" width="80" height="50" as="geometry" />
        </mxCell>
        <mxCell id="E6WqK7T27xIFB8Qk0rmb-34" value="" style="edgeStyle=orthogonalEdgeStyle;rounded=0;orthogonalLoop=1;jettySize=auto;html=1;" parent="1" source="E6WqK7T27xIFB8Qk0rmb-31" target="E6WqK7T27xIFB8Qk0rmb-33" edge="1">
          <mxGeometry relative="1" as="geometry" />
        </mxCell>
        <mxCell id="E6WqK7T27xIFB8Qk0rmb-31" value="service" style="whiteSpace=wrap;html=1;rounded=1;" parent="1" vertex="1">
          <mxGeometry x="580" y="1300" width="60" height="60" as="geometry" />
        </mxCell>
        <mxCell id="E6WqK7T27xIFB8Qk0rmb-36" style="edgeStyle=orthogonalEdgeStyle;rounded=0;orthogonalLoop=1;jettySize=auto;html=1;entryX=0;entryY=0.5;entryDx=0;entryDy=0;entryPerimeter=0;" parent="1" source="E6WqK7T27xIFB8Qk0rmb-33" target="E6WqK7T27xIFB8Qk0rmb-35" edge="1">
          <mxGeometry relative="1" as="geometry" />
        </mxCell>
        <mxCell id="E6WqK7T27xIFB8Qk0rmb-33" value="Repo" style="whiteSpace=wrap;html=1;rounded=1;" parent="1" vertex="1">
          <mxGeometry x="690" y="1300" width="60" height="50" as="geometry" />
        </mxCell>
        <mxCell id="E6WqK7T27xIFB8Qk0rmb-35" value="" style="shape=cylinder3;whiteSpace=wrap;html=1;boundedLbl=1;backgroundOutline=1;size=15;" parent="1" vertex="1">
          <mxGeometry x="970" y="1290" width="60" height="80" as="geometry" />
        </mxCell>
        <mxCell id="tYKn_np6TWMupXn4WACu-3" value="" style="edgeStyle=orthogonalEdgeStyle;rounded=0;orthogonalLoop=1;jettySize=auto;html=1;" edge="1" parent="1" source="tYKn_np6TWMupXn4WACu-1" target="tYKn_np6TWMupXn4WACu-2">
          <mxGeometry relative="1" as="geometry" />
        </mxCell>
        <mxCell id="tYKn_np6TWMupXn4WACu-1" value="Spring Rest as BE" style="rounded=1;whiteSpace=wrap;html=1;" vertex="1" parent="1">
          <mxGeometry x="235" y="1660" width="125" height="200" as="geometry" />
        </mxCell>
        <mxCell id="tYKn_np6TWMupXn4WACu-2" value="Angular/React/Vue.js as FE" style="whiteSpace=wrap;html=1;rounded=1;" vertex="1" parent="1">
          <mxGeometry x="442.5" y="1730" width="120" height="60" as="geometry" />
        </mxCell>
        <mxCell id="tYKn_np6TWMupXn4WACu-4" value="Web Service : its a service which will provide the data over the cross platform .&lt;br&gt;JSON ===&amp;gt;&amp;nbsp;&lt;br&gt;&lt;br&gt;SOAP : simple object acess protocol : (BFSI Domain) ===&amp;gt; security&lt;br&gt;REST Service :&amp;nbsp; all file formats, json , string, images, pdf , excel files, ppt , audio ,video etc.&lt;br&gt;" style="rounded=1;whiteSpace=wrap;html=1;" vertex="1" parent="1">
          <mxGeometry x="100" y="1940" width="280" height="120" as="geometry" />
        </mxCell>
      </root>
    </mxGraphModel>
  </diagram>
</mxfile>
